<svg viewBox="0 0 640 640" fill="none" xmlns="http://www.w3.org/2000/svg">
  <g className="folder">
    <rect x="160" y="192" width="320" height="288" rx="32" fill="#AC9E07" />

    <mask id="border" fill="white">
      <path
        d="M240 160L320 208H448C465.673 208 480 222.327 480 240V448C480 465.673 465.673 480 448 480H192C174.327 480 160 465.673 160 448V192C160 174.327 174.327 160 192 160H240Z"
      />
    </mask>

    <path
      d="M240 160L320 208H448C465.673 208 480 222.327 480 240V448C480 465.673 465.673 480 448 480H192C174.327 480 160 465.673 160 448V192C160 174.327 174.327 160 192 160H240Z"
      fill="#F8E784"
    />
    <path
      d="M240 160L242.572 155.713L241.385 155H240V160ZM320 208L317.428 212.287L318.615 213H320V208ZM480 240H485H480ZM448 480V485V480ZM192 480L192 485H192V480ZM160 448H155V448H160ZM192 160V155V160ZM240 160L237.428 164.287L317.428 212.287L320 208L322.572 203.713L242.572 155.713L240 160ZM320 208V213H448V208V203H320V208ZM448 208V213C462.912 213 475 225.088 475 240H480H485C485 219.565 468.435 203 448 203V208ZM480 240H475V448H480H485V240H480ZM480 448H475C475 462.912 462.912 475 448 475V480V485C468.435 485 485 468.435 485 448H480ZM448 480V475H192V480V485H448V480ZM192 480V475C177.088 475 165 462.912 165 448H160H155C155 468.435 171.565 485 192 485L192 480ZM160 448H165V192H160H155V448H160ZM160 192H165C165 177.088 177.088 165 192 165V160V155C171.565 155 155 171.565 155 192H160ZM192 160V165H240V160V155H192V160Z"
      fill="#AC9E07"
      mask="url(#border)"
    />
  </g>
  <g className="magnifier">
    <animateMotion
      path="m0,0 a32,32 0 0 1 0,64 a32,32 0 0 1 0,-64 z"
      dur="15s"
      repeatCount="indefinite"
      rotate="none"
    />

    <animateTransform
      attributeName="transform"
      attributeType="XML"
      type="translate"
      dur="30s"
      repeatCount="indefinite"
      keyTimes="0; 0.5; 1"
      values="0 -32; 0 32; 0 -32"
      calcMode="spline"
      keySplines="0.6 0 0.4 1; 0.6 0 0.4 1"
    />

    <path d="M353 353L466.137 466.137" stroke="#626262" stroke-width="24" stroke-linecap="round" />
    <path d="M438 438L494.569 494.569" stroke="#626262" stroke-width="40" stroke-linecap="round" />
    <circle cx="353" cy="353" r="78" fill="#FEFEFE" stroke="#626262" stroke-width="4" />
    <path
      d="M354.673 368.76H343.665C343.665 365.261 344.049 362.189 344.817 359.544C345.585 356.813 346.908 354.125 348.785 351.48C350.748 348.749 353.436 345.677 356.849 342.264C359.836 339.277 361.969 336.419 363.249 333.688C364.529 330.957 365.169 327.885 365.169 324.472C365.169 319.949 363.846 316.493 361.201 314.104C358.641 311.629 354.972 310.392 350.193 310.392C347.804 310.392 345.628 311.032 343.665 312.312C341.788 313.507 340.849 314.957 340.849 316.664C342.556 317.603 343.878 318.925 344.817 320.632C345.841 322.253 346.353 324.003 346.353 325.88C346.353 328.269 345.372 330.403 343.409 332.28C341.532 334.072 338.972 334.968 335.729 334.968C332.486 334.968 329.841 333.603 327.793 330.872C325.745 328.056 324.721 324.771 324.721 321.016C324.721 317.347 325.873 314.061 328.177 311.16C330.566 308.173 333.766 305.827 337.777 304.12C341.873 302.328 346.396 301.432 351.345 301.432C357.404 301.432 362.694 302.371 367.217 304.248C371.825 306.125 375.409 308.771 377.969 312.184C380.614 315.512 381.937 319.352 381.937 323.704C381.937 327.544 380.87 331.299 378.737 334.968C376.604 338.552 372.934 342.776 367.729 347.64C364.486 350.712 361.884 353.357 359.921 355.576C358.044 357.795 356.678 359.928 355.825 361.976C355.057 363.939 354.673 366.2 354.673 368.76ZM339.313 388.216C339.313 385.059 340.209 382.584 342.001 380.792C343.793 378.915 346.225 377.976 349.297 377.976C352.369 377.976 354.801 378.915 356.593 380.792C358.47 382.669 359.409 385.144 359.409 388.216C359.409 391.288 358.513 393.72 356.721 395.512C354.929 397.304 352.412 398.2 349.169 398.2C346.097 398.2 343.665 397.347 341.873 395.64C340.166 393.933 339.313 391.459 339.313 388.216Z"
      fill="#101010"
    />
  </g>
</svg>
