<svg width="640" height="640" viewBox="0 0 640 640" fill="none" xmlns="http://www.w3.org/2000/svg">
  <style>
    #background {
      fill: #f7fafd;
    }
    #text_quick {
      fill: #a76302;
    }
    #text_check {
      fill: #3c8000;
    }
    #text_task {
      fill: #0360b2;
    }
    @media (prefers-color-scheme: dark) {
      #background {
        fill: #010e1b;
      }
      #text_quick {
        fill: #e78800;
      }
      #text_check {
        fill: #a9d000;
      }
      #text_task {
        fill: #2d9cff;
      }
    }
  </style>

  <g opacity="0.98">
    <rect width="640" height="640" rx="64" id="background" />
    <path
      id="text_quick"
      d="M188.992 241.424C188.992 249.08 187.848 256.296 185.56 263.072C183.272 269.76 180.016 275.348 175.792 279.836C172.536 283.356 168.708 286.04 164.308 287.888C159.996 289.648 155.112 290.748 149.656 291.188V291.716L162.46 300.428C165.628 302.54 169.192 303.596 173.152 303.596C174.824 303.596 176.188 303.288 177.244 302.672C178.3 302.144 179.576 301.176 181.072 299.768L183.976 305.048C182.128 308.392 179.664 310.768 176.584 312.176C173.504 313.672 169.852 314.42 165.628 314.42C160.788 314.42 156.476 313.584 152.692 311.912C148.996 310.24 146.136 307.732 144.112 304.388L136.192 291.056C125.456 290.264 117.008 286.656 110.848 280.232C106.8 276.008 103.676 270.728 101.476 264.392C99.276 257.968 98.176 251.016 98.176 243.536C98.176 235.88 99.32 228.664 101.608 221.888C103.896 215.112 107.152 209.524 111.376 205.124C115.248 201.076 119.78 198.172 124.972 196.412C130.164 194.564 136.368 193.64 143.584 193.64C150.712 193.64 156.96 194.52 162.328 196.28C167.784 198.04 172.404 200.856 176.188 204.728C180.324 208.864 183.492 214.188 185.692 220.7C187.892 227.124 188.992 234.032 188.992 241.424ZM117.316 240.632C117.316 247.584 117.932 253.788 119.164 259.244C120.396 264.7 122.156 269.056 124.444 272.312C128.316 278.824 134.784 282.08 143.848 282.08C152.384 282.08 158.632 279.176 162.592 273.368C167.432 267.208 169.852 257.176 169.852 243.272C169.852 229.368 167.432 219.116 162.592 212.516C158.456 206.004 151.988 202.748 143.188 202.748C134.916 202.748 128.712 205.652 124.576 211.46C119.736 217.356 117.316 227.08 117.316 240.632ZM270.908 253.832V205.388L259.82 202.616V194.96H294.272V202.616L283.184 205.388V257.924C283.184 268.836 279.884 277.152 273.284 282.872C266.772 288.592 257.18 291.452 244.508 291.452C232.804 291.452 223.784 288.548 217.448 282.74C211.2 276.844 208.076 268.528 208.076 257.792V205.388L196.988 202.616V194.96H236.324V202.616L225.236 205.388V253.568C225.236 272.664 232.628 282.212 247.412 282.212C255.684 282.212 261.668 279.968 265.364 275.48C269.06 270.992 270.908 263.776 270.908 253.832ZM331.652 205.388V279.572L344.06 282.344V290H302.084V282.344L314.492 279.572V205.388L302.084 202.616V194.96H344.06V202.616L331.652 205.388ZM397.241 202.748C393.897 202.748 390.685 203.452 387.605 204.86C384.613 206.268 382.193 208.292 380.345 210.932C377.969 214.364 375.945 218.676 374.273 223.868C372.689 228.972 371.897 234.648 371.897 240.896C371.897 247.144 372.557 252.996 373.877 258.452C375.197 263.908 377.045 268.484 379.421 272.18C381.357 275.172 383.953 277.372 387.209 278.78C390.553 280.188 394.293 280.892 398.429 280.892C413.213 280.892 421.881 273.456 424.433 258.584H435.653C431.341 280.408 417.965 291.32 395.525 291.32C383.381 291.32 373.701 287.8 366.485 280.76C362.173 276.536 358.873 271.212 356.585 264.788C354.297 258.364 353.153 251.236 353.153 243.404C353.153 234.516 354.605 226.464 357.509 219.248C360.413 212.032 364.505 206.268 369.785 201.956C376.473 196.412 385.317 193.64 396.317 193.64C401.773 193.64 406.217 194.344 409.649 195.752C413.081 197.16 416.469 199.668 419.813 203.276L422.453 194.96H433.673V226.112H421.661C420.429 218.368 417.657 212.56 413.345 208.688C409.121 204.728 403.753 202.748 397.241 202.748ZM473.965 205.388V237.596L504.985 205.388L492.973 202.616V194.96H531.649V202.616L520.033 205.388L491.125 234.032L529.009 279.836L540.097 282.344V290H499.309V282.344L508.021 279.704L480.037 245.12L473.965 250.928V279.572L485.053 282.344V290H444.397V282.344L456.805 279.572V205.388L444.397 202.616V194.96H485.053V202.616L473.965 205.388Z"
    />
    <g clip-path="url(#clip0_2049_21)">
      <path
        id="text_check"
        d="M155 452.5C147.115 452.5 139.705 451.004 132.77 448.011C125.835 445.019 119.802 440.957 114.673 435.827C109.542 430.698 105.481 424.665 102.489 417.73C99.4963 410.795 98 403.385 98 395.5C98 387.615 99.4963 380.205 102.489 373.27C105.481 366.335 109.542 360.302 114.673 355.173C119.802 350.042 125.835 345.981 132.77 342.989C139.705 339.996 147.115 338.5 155 338.5C161.175 338.5 167.018 339.402 172.527 341.207C178.037 343.012 183.12 345.53 187.775 348.76L179.51 357.167C175.9 354.887 172.052 353.106 167.967 351.824C163.882 350.541 159.56 349.9 155 349.9C142.365 349.9 131.606 354.341 122.724 363.224C113.841 372.106 109.4 382.865 109.4 395.5C109.4 408.135 113.841 418.894 122.724 427.776C131.606 436.659 142.365 441.1 155 441.1C167.635 441.1 178.394 436.659 187.276 427.776C196.159 418.894 200.6 408.135 200.6 395.5C200.6 393.79 200.505 392.08 200.315 390.37C200.125 388.66 199.84 386.997 199.46 385.382L208.722 376.12C209.768 379.16 210.575 382.295 211.145 385.525C211.715 388.755 212 392.08 212 395.5C212 403.385 210.504 410.795 207.511 417.73C204.519 424.665 200.457 430.698 195.327 435.827C190.198 440.957 184.165 445.019 177.23 448.011C170.295 451.004 162.885 452.5 155 452.5ZM147.02 421.72L122.795 397.495L130.775 389.515L147.02 405.76L204.02 348.618L212 356.597L147.02 421.72Z"
      />
      <path
        id="text_task"
        d="M274.845 439V358.232H248.093V349.4H312.349V358.232H285.597V439H274.845ZM310.218 439L343.242 349.4H354.634L387.53 439H376.01L348.874 362.84L321.482 439H310.218ZM325.322 415.96L328.394 407.256H368.97L372.042 415.96H325.322ZM429.903 440.536C423.332 440.536 417.615 439.341 412.751 436.952C407.887 434.563 404.132 431.235 401.487 426.968C398.842 422.701 397.519 417.752 397.519 412.12H408.783C408.783 415.619 409.594 418.861 411.215 421.848C412.836 424.749 415.183 427.096 418.255 428.888C421.412 430.595 425.295 431.448 429.903 431.448C433.914 431.448 437.327 430.808 440.143 429.528C443.044 428.163 445.22 426.328 446.671 424.024C448.207 421.72 448.975 419.117 448.975 416.216C448.975 412.973 448.25 410.285 446.799 408.152C445.434 405.933 443.514 404.141 441.039 402.776C438.564 401.325 435.706 400.045 432.463 398.936C429.22 397.827 425.722 396.675 421.967 395.48C414.458 393.091 408.996 390.104 405.583 386.52C402.255 382.851 400.591 378.157 400.591 372.44C400.591 367.576 401.7 363.309 403.919 359.64C406.223 355.971 409.466 353.112 413.647 351.064C417.914 348.931 422.948 347.864 428.751 347.864C434.468 347.864 439.418 348.931 443.599 351.064C447.866 353.197 451.194 356.141 453.583 359.896C455.972 363.565 457.167 367.832 457.167 372.696H445.903C445.903 370.221 445.263 367.789 443.983 365.4C442.703 363.011 440.74 361.048 438.095 359.512C435.535 357.891 432.292 357.08 428.367 357.08C425.124 356.995 422.223 357.549 419.663 358.744C417.188 359.853 415.226 361.475 413.775 363.608C412.41 365.741 411.727 368.344 411.727 371.416C411.727 374.317 412.324 376.664 413.519 378.456C414.799 380.248 416.591 381.784 418.895 383.064C421.284 384.259 424.058 385.368 427.215 386.392C430.372 387.416 433.871 388.568 437.711 389.848C442.063 391.299 445.903 393.091 449.231 395.224C452.644 397.272 455.29 399.917 457.167 403.16C459.13 406.403 460.111 410.541 460.111 415.576C460.111 419.843 458.959 423.896 456.655 427.736C454.436 431.491 451.108 434.563 446.671 436.952C442.234 439.341 436.644 440.536 429.903 440.536ZM476.231 439V349.4H486.983V389.976L524.359 349.4H537.927L504.647 385.112L538.439 439H525.383L496.967 393.432L486.983 404.056V439H476.231Z"
      />
    </g>
  </g>
  <defs>
    <clipPath id="clip0_2049_21">
      <rect width="444" height="115" fill="white" transform="translate(98 338)" />
    </clipPath>
  </defs>
</svg>
